<?xml version="1.0" encoding="utf-8"?>
<!-- Generator: Adobe Illustrator 19.1.0, SVG Export Plug-In . SVG Version: 6.00 Build 0)  -->
<!DOCTYPE svg PUBLIC "-//W3C//DTD SVG 1.1 Basic//EN" "http://www.w3.org/Graphics/SVG/1.1/DTD/svg11-basic.dtd">
<svg version="1.1" baseProfile="basic" id="Layer" xmlns="http://www.w3.org/2000/svg" xmlns:xlink="http://www.w3.org/1999/xlink"
	 x="0px" y="0px" viewBox="80 -148 800 576" xml:space="preserve">
<style type="text/css">
	.st0{fill:#555555;}
	.st1{fill:#45B8FF;}
	.st2{fill:#FF7BAE;}
	.st3{fill:#FFFFFF;}
	.st4{fill:#7A7A7A;}
	.st5{fill:#C9DBE9;}
	.st6{fill:#D8D8D8;}
</style>
<g>
	<path class="st0" d="M608.866,340.9c0,2.4-1.3,4.3-3.4,4.3s-3.4-2-3.4-4.3c0-2.4,1.2-3.9,3.4-3.9
		C607.666,336.9,608.866,338.5,608.866,340.9z M610.066,340.9c0-3.2-1.7-5-4.6-5s-4.6,1.8-4.6,5c0,3.2,1.9,5.4,4.6,5.4
		S610.066,344,610.066,340.9z M599.266,336.1h-1.3l-3.1,8.5c-1.4-2.6-2.8-5.6-3.7-8.5h-1.4c1.1,3.3,2.6,6.7,4.6,10
		c-0.2,1.7-1,2.5-2.1,2.5c-0.3,0-0.7-0.1-1-0.1v0.4c0,0.6,0.7,0.9,1.4,0.9c1.6,0,2.7-1.1,2.9-3.8l3.7-9.7L599.266,336.1
		L599.266,336.1z M588.966,345.3h-0.2c-0.7,0-1.1-0.3-1.5-0.9l-2.8-3.3c1.6-1.5,3-3.3,4.1-4.9v-0.1h-1.3c-1,1.6-2.4,3.4-3.8,4.7
		h-1.6v-8.2c-1,0-1.2,0-1.2,0.7v12.8h1.2v-4.3h1.6l2.6,3.3c0.7,0.9,1,1.2,1.9,1.2c0.4,0,1-0.2,1-0.6V345.3L588.966,345.3z
		 M576.866,340.9c0,2.4-1.3,4.3-3.4,4.3s-3.4-2-3.4-4.3c0-2.4,1.2-3.9,3.4-3.9C575.666,336.9,576.866,338.5,576.866,340.9z
		 M578.066,340.9c0-3.2-1.7-5-4.6-5s-4.6,1.8-4.6,5c0,3.2,1.9,5.4,4.6,5.4S578.066,344,578.066,340.9z M562.366,346.1v-12.3h4.6
		c0-0.8,0-1.2-0.5-1.2h-9.9v1.2h4.6v12.3H562.366z M548.466,348.7c0.6-1.2,1.1-2.9,1.2-4.7h-1.4c-0.1,1.8-0.3,3.3-0.8,4.9
		c0.3,0.1,0.5,0.2,0.6,0.2C548.266,349,548.366,348.9,548.466,348.7z M545.166,332.6c0-0.6-0.3-0.9-0.9-0.9c-0.6,0-0.9,0.4-0.9,0.9
		c0,0.6,0.3,0.9,0.9,0.9S545.166,333.2,545.166,332.6z M544.766,346.1V336c-1,0-1.2,0-1.2,0.7v9.4L544.766,346.1L544.766,346.1z
		 M537.566,345.4c1.5,0,2.6,0.3,2.6,1.4c0,1.4-1.7,2-3.5,2c-1.7,0-2.9-0.5-2.9-1.8c0-0.9,0.9-1.7,2.6-1.7L537.566,345.4
		L537.566,345.4z M539.466,339.3c0,1.3-1.2,2.3-2.6,2.3c-1.4,0-2.6-0.9-2.6-2.3c0-1.4,1-2.3,2.6-2.3
		C538.466,336.9,539.466,337.9,539.466,339.3z M541.766,334.7c0-0.9,0-1.2-0.5-1.2c-1.3,0-2.9,0.6-2.9,2.3c0,0.1,0,0.2,0,0.3
		c-0.4-0.1-0.9-0.2-1.4-0.2c-2.1,0-3.7,1.2-3.7,3.3c0,1.4,0.7,2.4,1.8,2.9c-0.9,0.3-1.5,0.7-1.5,1.6c0,0.7,0.3,1.1,0.9,1.4
		c-1.1,0.3-1.8,1-1.8,2.2c0,1.7,1.8,2.5,4,2.5s4.8-0.9,4.8-3.1c0-1.7-1.5-2.2-3.5-2.2h-1.6c-1.1,0-1.7-0.4-1.7-1s0.8-1,2.4-1
		c2,0,3.8-1.2,3.8-3.3c0-1.2-0.6-2.2-1.5-2.7c-0.1-0.1-0.1-0.3-0.1-0.4C538.966,335.2,540.366,334.7,541.766,334.7z M530.566,345.5
		v-6.1c0-2.4-1.4-3.6-3.4-3.6c-1.5,0-3.1,0.8-3.9,2.4V336c-1,0-1.2,0-1.2,0.7v9.4h1.2v-5.4c0-2.5,1.8-3.7,3.5-3.7c1.6,0,2.7,1,2.7,3
		v6.2C530.466,346.2,530.566,346.1,530.566,345.5z M518.266,340.9c0,2.4-1.3,4.3-3.4,4.3c-2.1,0-3.4-2-3.4-4.3
		c0-2.4,1.2-3.9,3.4-3.9C517.166,336.9,518.266,338.5,518.266,340.9z M519.466,340.9c0-3.2-1.7-5-4.6-5c-2.9,0-4.6,1.8-4.6,5
		c0,3.2,1.9,5.4,4.6,5.4C517.566,346.3,519.466,344,519.466,340.9z M506.966,340.6c0,2.3-1.3,4.6-3.7,4.6c-1.9,0-2.9-1.7-2.9-3.3
		c0-2.8,1.4-4.9,3.6-4.9C506.066,336.9,506.966,338.6,506.966,340.6z M500.166,349.6v-5.2c0.6,1.3,1.8,2,3.3,2
		c2.9,0,4.7-2.7,4.7-5.7c0-2.7-1.4-4.7-3.9-4.7c-1.9,0-3.3,1.2-4.1,3v-2.8c-1,0-1.2,0-1.2,0.7v12.9h1.2V349.6z M495.166,340.6
		c0,2.3-1.3,4.6-3.7,4.6c-1.9,0-2.9-1.7-2.9-3.3c0-2.8,1.4-4.9,3.6-4.9C494.266,336.9,495.166,338.6,495.166,340.6z M488.466,349.6
		v-5.2c0.6,1.3,1.8,2,3.3,2c2.9,0,4.7-2.7,4.7-5.7c0-2.7-1.4-4.7-3.9-4.7c-1.9,0-3.3,1.2-4.1,3v-2.8c-1,0-1.2,0-1.2,0.7v12.9h1.2
		V349.6z M483.466,340.9c0,2.4-1.3,4.3-3.4,4.3s-3.4-2-3.4-4.3c0-2.4,1.2-3.9,3.4-3.9C482.366,336.9,483.466,338.5,483.466,340.9z
		 M484.666,340.9c0-3.2-1.7-5-4.6-5s-4.6,1.8-4.6,5c0,3.2,1.9,5.4,4.6,5.4S484.666,344,484.666,340.9z M471.466,336.8
		c0,2.2-1.8,3.2-3.7,3.2h-2.6v-6.3h2.6C469.566,333.7,471.466,334.5,471.466,336.8z M472.766,336.6c0-2.8-2.3-4-4.7-4h-2.9
		c-1,0-1.2,0-1.2,0.7v12.8h1.2v-4.9h2.8l2.9,3.8c0.8,1.1,1.3,1.3,2.1,1.3c0.5,0,1.1-0.3,1.1-0.9v-0.3h-0.3c-0.8,0-1.3-0.2-1.9-1
		l-2.7-3.3C471.166,340.3,472.766,338.9,472.766,336.6z M451.366,348.2l6.5-17.3h-1.1l-6.5,17.3H451.366z M443.566,346.2
		c0.7,0,1-0.4,1-1.1c0-0.7-0.3-1-1-1s-1,0.4-1,1C442.566,345.8,442.866,346.2,443.566,346.2z M439.666,344.6
		c-0.8,0.4-1.7,0.5-2.5,0.5c-2.8,0-4-1.8-4-4.4c0-2,1.4-3.8,3.5-3.8c1.3,0,2.3,0.6,2.3,2.1v0.4h0.4c0.4,0,0.7-0.3,0.7-0.9
		c0-1.8-1.6-2.6-3.2-2.6c-2.7,0-4.8,2.1-4.8,4.9c0,3.5,1.8,5.5,4.8,5.5c1.3,0,3-0.4,3-1.3v-0.4H439.666z M429.466,345.5v-6.1
		c0-2.4-1.4-3.6-3.4-3.6c-1.5,0-3.1,0.8-3.9,2.4V336c-1,0-1.2,0-1.2,0.7v9.4h1.2v-5.4c0-2.5,1.8-3.7,3.5-3.7c1.6,0,2.7,1,2.7,3v6.2
		C429.366,346.2,429.466,346.1,429.466,345.5z M417.666,346.1v-13.6c-1,0-1.2,0-1.2,0.7v12.9L417.666,346.1L417.666,346.1z
		 M407.266,348.7c0.6-1.2,1.1-2.9,1.2-4.7h-1.4c-0.1,1.8-0.3,3.3-0.8,4.9c0.3,0.1,0.5,0.2,0.6,0.2
		C407.066,349,407.166,348.9,407.266,348.7z M403.966,343.4c0-3.3-5.2-1.9-5.2-4.7c0-0.9,0.8-1.7,2.3-1.7c1.4,0,2.2,0.8,2.2,1.7v0.3
		h0.3c0.4,0,0.6-0.2,0.6-0.8c0-1.2-1.2-2.3-3.1-2.3c-2.2,0-3.5,1.4-3.5,3.1c0,3.5,5.2,2.2,5.2,4.6c0,1-1.1,1.6-2.3,1.6
		c-0.8,0-1.6-0.2-2.4-0.6v0.5c0,0.8,1.2,1.2,2.4,1.2C402.266,346.3,403.966,345.4,403.966,343.4z M394.266,340.6
		c0,2.3-1.3,4.6-3.7,4.6c-1.9,0-2.9-1.7-2.9-3.3c0-2.8,1.4-4.9,3.6-4.9C393.366,336.9,394.266,338.6,394.266,340.6z M387.566,349.6
		v-5.2c0.6,1.3,1.8,2,3.3,2c2.9,0,4.7-2.7,4.7-5.7c0-2.7-1.4-4.7-3.9-4.7c-1.9,0-3.3,1.2-4.1,3v-2.8c-1,0-1.2,0-1.2,0.7v12.9h1.2
		V349.6z M382.566,340.9c0,2.4-1.3,4.3-3.4,4.3s-3.4-2-3.4-4.3c0-2.4,1.2-3.9,3.4-3.9C381.466,336.9,382.566,338.5,382.566,340.9z
		 M383.766,340.9c0-3.2-1.7-5-4.6-5s-4.6,1.8-4.6,5c0,3.2,1.9,5.4,4.6,5.4S383.766,344,383.766,340.9z M371.266,340.9
		c0,2.4-1.3,4.3-3.4,4.3s-3.4-2-3.4-4.3c0-2.4,1.2-3.9,3.4-3.9C370.066,336.9,371.266,338.5,371.266,340.9z M372.466,340.9
		c0-3.2-1.7-5-4.6-5s-4.6,1.8-4.6,5c0,3.2,1.9,5.4,4.6,5.4S372.466,344,372.466,340.9z M360.566,346.1v-14.3c-1,0-1.2,0-1.2,0.7
		v13.6H360.566z M353.366,345.4c1.5,0,2.6,0.3,2.6,1.4c0,1.4-1.7,2-3.5,2c-1.7,0-2.9-0.5-2.9-1.8c0-0.9,0.9-1.7,2.6-1.7
		L353.366,345.4L353.366,345.4z M355.266,339.3c0,1.3-1.2,2.3-2.6,2.3s-2.6-0.9-2.6-2.3c0-1.4,1-2.3,2.6-2.3
		C354.266,336.9,355.266,337.9,355.266,339.3z M357.566,334.7c0-0.9,0-1.2-0.5-1.2c-1.3,0-2.9,0.6-2.9,2.3c0,0.1,0,0.2,0,0.3
		c-0.4-0.1-0.9-0.2-1.4-0.2c-2.1,0-3.7,1.2-3.7,3.3c0,1.4,0.7,2.4,1.8,2.9c-0.9,0.3-1.5,0.7-1.5,1.6c0,0.7,0.3,1.1,0.9,1.4
		c-1.1,0.3-1.8,1-1.8,2.2c0,1.7,1.8,2.5,4,2.5s4.8-0.9,4.8-3.1c0-1.7-1.5-2.2-3.5-2.2h-1.6c-1.1,0-1.7-0.4-1.7-1s0.8-1,2.4-1
		c2,0,3.8-1.2,3.8-3.3c0-1.2-0.6-2.2-1.5-2.7c-0.1-0.1-0.1-0.3-0.1-0.4C354.766,335.2,356.166,334.7,357.566,334.7z"/>
	<path class="st0" d="M499.366,377.3c0-2-1.3-2.9-4.1-2.9c-0.3,0-0.7,0-1.1,0.1l0.2-3h5.1c0-1.1,0-1.4-0.6-1.4h-5.8l-0.2,4.7
		c0.1,0.5,0.3,0.9,0.5,1.3c0.7-0.2,1.4-0.2,1.9-0.2c1.9,0,2.5,0.6,2.5,1.6c0,1.1-1.1,1.7-2.5,1.7c-1,0-1.8-0.3-2.6-0.6v0.5
		c0,1.1,1.3,1.5,2.9,1.5C497.366,380.6,499.366,379.4,499.366,377.3z M484.866,375.7c0,1.7-0.9,3.5-2.7,3.5c-1.3,0-2.2-1.3-2.2-2.5
		c0-2.2,1-3.7,2.6-3.7C484.266,372.9,484.866,374.2,484.866,375.7z M479.866,383.4v-4.2c0.6,0.9,1.5,1.4,2.6,1.4c2.4,0,4-2.3,4-4.9
		c0-2.4-1.2-4.1-3.4-4.1c-1.5,0-2.6,0.8-3.3,2.1v-2c-1.3,0-1.5,0-1.5,0.9v10.8L479.866,383.4L479.866,383.4z M472.666,372.9
		c1.2,0,2.1,0.7,2.1,2c0,0.2-0.1,0.6-0.6,0.6h-3.9C470.366,374,470.966,372.9,472.666,372.9z M475.666,378.7
		c-0.6,0.3-1.4,0.4-2.1,0.4c-2,0-3-0.8-3.3-2.4h4.5c0.7,0,1.5-0.3,1.5-1.2c0-2.3-1.4-3.9-3.7-3.9c-2.4,0-4.1,1.8-4.1,4.2
		c0,3.2,1.8,4.8,4.2,4.8c1.4,0,2.8-0.4,2.8-1.3v-0.6H475.666z M466.566,377.2c0-3.6-5.5-2.4-5.5-5.2c0-1.1,0.9-1.8,2.2-1.8
		c1.4,0,2.1,0.8,2.1,1.7v0.4h0.4c0.5,0,1.1-0.3,1.1-1.3c0-1.3-1.5-2.4-3.5-2.4c-2.3,0-4.1,1.4-4.1,3.7c0,3.9,5.5,2.9,5.5,5.1
		c0,1.1-1.1,1.5-2.3,1.5c-1,0-2-0.3-2.7-0.7v0.7c0,1.2,1.4,1.6,2.8,1.6C464.766,380.6,466.566,379.4,466.566,377.2z"/>
	<path class="st1" d="M682.066,127.3v-9.2h-10.6c-8.6,0-10.1,0-10.1,5.3v16.3c-2.7,0.8-5.5,1.2-8.5,1.2c-18.8,0-26.8-12.7-26.8-29.6
		c0-14.3,9-25.3,23.8-25.3c9.2,0,14.8,4.9,14.8,12.9v2.5h3.5c3.5,0,6.6-3.6,6.6-8.6c0-9.7-9.9-16.4-24.5-16.4
		c-20.8,0-35,14.5-35,34.9c0,24.6,13.3,39.1,34.3,39.1c9.1,0,21.8-2.6,21.8-10.2v-12.8L682.066,127.3L682.066,127.3z M600.766,119.8
		V77.5h-10v41c0,16.5-8,22.3-19,22.3c-10.9,0-18.3-5.8-18.3-22.3V77.1c-8.4,0-10.1,0-10.1,5.3v37.4c0,20.3,13,30.5,28.4,30.5
		C587.066,150.3,600.766,141.5,600.766,119.8z M528.566,149.2v-9.8h-38.9l38.4-52.2c1.1-2.5,1.6-6.6,1.2-9.7h-49.7
		c-3.7,0-3.7,3.2-3.7,9.8h39.4l-38.4,52.2c-1.1,2.5-1.6,6.6-1.2,9.7H528.566z M446.166,124.3h-26.3c4.2-11.4,9-22.6,14.1-32.9
		L446.166,124.3z M466.866,149.2v-1.3l-28.3-71.3c-4.1,0.2-8,1.2-11.9,3.5c0.8,2.1,0.3,4.7-1.3,8c-9.4,17.9-18.4,39.9-25.4,61.2
		h11.7c1.6-5.1,3.1-10.4,4.9-15.6h33l5.7,15.6h11.6L466.866,149.2L466.866,149.2z M387.266,144.1V77c-8.4,0-10,0-10,5.3v60
		c0,6.2-3.8,10-9.8,10c-2.2,0-4.8-0.4-6.6-1.1v3.6c0,4.9,4.6,6.9,9.8,6.9C378.766,161.8,387.266,156.1,387.266,144.1z
		 M273.266,121.4c0,10.6-5.3,20.2-15.8,20.2s-15.7-9.6-15.7-20.2c0-10.7,4.8-18.3,15.7-18.3S273.266,110.7,273.266,121.4z
		 M283.266,121.4c0-17-9.8-26.8-25.8-26.8s-25.7,9.8-25.7,26.8s10.1,29,25.7,29C273.066,150.3,283.266,138.4,283.266,121.4z
		 M222.966,127.3v-9.2h-10.5c-8.6,0-10.1,0-10.1,5.3v16.3c-2.7,0.8-5.5,1.2-8.5,1.2c-18.8,0-26.8-12.7-26.8-29.6
		c0-14.3,9-25.3,23.8-25.3c9.2,0,14.8,4.9,14.8,12.9v2.5h3.5c3.5,0,6.6-3.6,6.6-8.6c0-9.7-9.9-16.4-24.5-16.4
		c-20.8,0-35,14.5-35,34.9c0,24.6,13.3,39.1,34.3,39.1c9.1,0,21.8-2.6,21.8-10.2v-12.8L222.966,127.3L222.966,127.3z"/>
	<circle class="st2" cx="313.466" cy="72.5" r="25.9"/>
	<path class="st3" d="M323.366,78.5c0-5.5-3.6-8.2-11.5-8.2c-0.9,0-2.1,0.1-3.2,0.3l0.5-8.4h14.2c0-3,0-4-1.8-4h-16.2l-0.6,13.1
		c0.4,1.4,0.7,2.4,1.4,3.5c1.9-0.5,3.9-0.6,5.4-0.6c5.3,0,7,1.7,7,4.5c0,3-3.2,4.8-7.1,4.8c-2.8,0-5-0.7-7.3-1.8v1.5
		c0,3.1,3.5,4.3,8,4.3C317.766,87.5,323.366,84.4,323.366,78.5z"/>
	<path class="st4" d="M178.166,185.9c-1.9-1.1-4-1.9-6.2-2.5l-0.1-0.4c0.3-0.3,0.8-0.4,1.3-0.3c2.1,0.3,4.2,1,6,2l0.1,0.6l-0.6,0.6
		H178.166L178.166,185.9z M174.566,194c-0.8,0-1.5-0.3-2.1-0.8l-0.1-0.6l0.2-0.2h1l1,0.3h2.1c1.3-0.3,2.6-0.6,3.9-1l0.3,0.6
		c-1.4,1-3,1.6-4.8,1.8L174.566,194L174.566,194z M180.866,186.1l-0.8-0.3c-0.8-2-1.2-4.2-1.5-6.4l0.8-0.2l0.7,0.4l0.3,0.7v1.9
		c0.2,1.2,0.5,2.4,0.9,3.5L180.866,186.1z M183.766,187.2l-0.8-0.7v-3.9l-0.2-1v-1l-0.1-0.1v-1l-0.1-0.6l0.7-0.2l0.8,0.4l0.2,1.2
		l-0.1,0.3l0.2,0.8v4.1l-0.3,1.7H183.766z"/>
	<path class="st4" d="M216.466,188.9l-0.6-0.9l0.1-0.5c3.6-0.4,7.1-0.7,10.7-1.2l0.6,0.6v0.7l-0.4,0.4l-1.1-0.2
		C222.566,188.2,219.566,188.6,216.466,188.9z"/>
	<path class="st4" d="M266.166,185.9c-1.9-1.1-4-1.9-6.2-2.5l-0.1-0.4c0.3-0.3,0.8-0.4,1.3-0.3c2.1,0.3,4.2,1,6,2l0.1,0.6l-0.6,0.6
		H266.166L266.166,185.9z M262.566,194c-0.8,0-1.5-0.3-2.1-0.8l-0.1-0.6l0.2-0.2h1l1,0.3h2.1c1.3-0.3,2.6-0.6,3.9-1l0.3,0.6
		c-1.4,1-3,1.6-4.8,1.8L262.566,194L262.566,194z M268.866,186.1l-0.8-0.3c-0.8-2-1.2-4.2-1.5-6.4l0.8-0.2l0.7,0.4l0.3,0.7v1.9
		c0.2,1.2,0.5,2.4,0.9,3.5L268.866,186.1z M271.766,187.2l-0.8-0.7v-3.9l-0.2-1v-1l-0.1-0.1v-1l-0.1-0.6l0.7-0.2l0.8,0.4l0.2,1.2
		l-0.1,0.3l0.2,0.8v4.1l-0.3,1.7H271.766z"/>
	<path class="st4" d="M304.466,188.9l-0.6-0.9l0.1-0.5c3.6-0.4,7.1-0.7,10.7-1.2l0.6,0.6v0.7l-0.4,0.4l-1.1-0.2
		C310.666,188.2,307.566,188.6,304.466,188.9z"/>
	<path class="st4" d="M350.866,194.2l-1.6-0.9c-0.9-0.8-1.4-1.9-1.4-3.1V186l0.1-0.1v-1.8l0.2-0.8l0.9-0.1l0.4,0.3v1l-0.2,1.1v2.7
		l-0.1,0.1v1.7c0.1,1,0.4,1.8,1,2.5l1.1,0.4c0.9-0.6,1.9-1.1,2.9-1.5c0.3,0.2,0.4,0.5,0.3,0.8c-0.8,0.8-1.6,1.4-2.6,1.8h-1
		L350.866,194.2L350.866,194.2z M353.966,187.9c-1-1.3-1.7-2.8-1.9-4.5c0.3-0.2,0.6-0.3,0.9-0.2l0.5,0.3c0.2,1.5,0.8,2.9,1.7,4.2
		l-0.2,0.2C354.966,187.9,353.966,187.9,353.966,187.9z M358.366,187.4l-0.6-0.5c-0.4-1.9-0.8-3.7-1.4-5.4l0.9-0.1l0.5,0.4
		c0.5,1.3,0.9,2.7,1.3,4.1v1.3L358.366,187.4z"/>
	<path class="st4" d="M395.166,194.6c-0.9-1.3-1.4-2.7-1.5-4.3l-0.4-0.1l-1,1.1h-0.8l-0.5-0.9c0.8-0.8,1.6-1.4,2.5-1.9v-0.4
		l-0.5-2.5c0.3-0.3,0.6-0.4,1-0.3c0.5,0.7,0.8,1.4,0.6,2.3h0.4l1.6-1l0.5-2.5l0.8-0.1l0.5,0.5v0.6l-0.3,0.9l0.4,0.2l0.1-0.1h1.2
		c0.8,0.1,1.5,0.4,2.1,1.1l0.2,0.5v1.3c-0.4,1-1.1,1.7-2.1,2.4l-0.8,0.3l-0.8-0.5l-0.2-0.5c0.6-0.1,1.2-0.4,1.6-0.9
		c0.6-0.6,0.9-1.3,0.8-2.2c-0.5-0.5-1.1-0.6-1.8-0.5l-0.9,0.4l-0.4,2.1l0.1,0.4c-0.1,0.5-0.4,0.6-0.9,0.5l-0.5-0.5v-0.5l0.1-1
		l-0.4-0.1l-1,0.8v0.5c0.2,1.2,0.5,2.3,1,3.4c0.3,0.3,0.5,0.8,0.4,1.3L395.166,194.6z"/>
	<path class="st4" d="M443.466,195.4l-0.8-1.2c0.3-0.8,0.5-1.7,0.6-2.7l-0.4-0.1l-0.2,0.2h-1.2c-0.8-0.4-1.4-1-1.7-1.8l-0.3-1v-1.7
		c0.1-0.6,0.4-1.2,0.8-1.7l0.3-0.2h1l1.6,0.9l0.1-0.3v-1.9l-0.2-0.6l-0.6-0.1c-2.3,0.4-4.5,1.1-6.5,2.1l-0.8-1
		c2.3-1.2,4.8-1.9,7.5-2.4l0.1-0.4l-0.6-1.5l0.8-0.2l0.5,0.3l0.7,1.6l0.6,0.1l0.7-0.1v-0.3c-0.4-1-0.8-2-1-3.1l0.7-0.3l0.8,0.5
		c0.1,1.1,0.4,2.1,1,3.1l0.5,0.1l0.4-0.1l0.8,0.1l0.2-0.4l-0.7-4l0.5-0.2l0.8,0.5c0.2,2.1,0.6,4,1.2,5.8l-0.6,0.3
		c-0.5-0.5-1.2-0.9-1.9-0.9l-0.7,0.1c0.1,0.5,0,0.7-0.5,0.7l-0.7-0.4l-0.3-0.4h-1.2l-0.3,0.5l0.2,0.8v1.4l-0.1,0.1v1.7l-0.2,0.3v1.2
		l0.3,1.6v2.2l-0.1,0.1v1.2l-0.3,1.2L443.466,195.4z M441.866,190.4c0.5-0.8,0.8-1.6,0.8-2.7l-0.7-1.2l-0.5-0.2l-0.6,0.6l-0.1,0.5
		v1.3c0.1,0.8,0.4,1.3,1,1.7L441.866,190.4z"/>
	<path class="st4" d="M489.366,195.4c-0.5-0.2-0.8-0.4-0.9-0.8l0.2-0.4v-1l0.1-0.1v-2.5l0.1-0.1v-1.9l0.1-0.1v-1.8h-0.3
		c-1.4,1.5-2.4,3.2-2.9,5.1l-0.8,0.1c-0.8-2.4-1.4-4.9-1.9-7.5c0.3-0.2,0.6-0.3,1-0.2c0.6,1.4,1,2.9,1,4.5l0.3,0.1
		c0.8-1.2,1.7-2.4,2.8-3.4l0.6-0.3l0.1-0.3v-1.2l-0.3-2.2l1-0.2l0.5,0.5v1.6l0.1,0.5h0.3c0.8-0.4,1.7-0.8,2.6-1h1.5
		c0.8,0.1,1.5,0.6,2.1,1.3c0.3,0.7,0.4,1.5,0.4,2.3c-0.7,1.9-1.8,3.7-3.2,5.4c-0.4,0.5-0.9,0.8-1.5,0.9h-1.3l-0.9-0.5l-0.1,0.1v1.6
		l-0.1,0.4l0.2,0.9l-0.1,0.3L489.366,195.4z M491.966,191.2c1.6-1.5,2.8-3.1,3.5-5l0.2-1.2l-0.5-1l-1-0.4c-1.4,0.2-2.6,0.8-3.8,1.7
		l-0.2,0.3v4.4l-0.1,1l0.1,0.3l1.5,0.2L491.966,191.2z"/>
	<path class="st4" d="M529.166,188.9l-0.6-0.9l0.1-0.5c3.6-0.4,7.1-0.7,10.7-1.2l0.6,0.6v0.7l-0.4,0.4l-1.1-0.2
		C535.366,188.2,532.266,188.6,529.166,188.9z"/>
	<path class="st4" d="M575.566,194.2l-1.6-0.9c-0.9-0.8-1.4-1.9-1.4-3.1V186l0.1-0.1v-1.8l0.2-0.8l0.9-0.1l0.4,0.3v1l-0.2,1.1v2.7
		l-0.1,0.1v1.7c0.1,1,0.4,1.8,1,2.5l1.1,0.4c0.9-0.6,1.9-1.1,2.9-1.5c0.3,0.2,0.4,0.5,0.3,0.8c-0.8,0.8-1.6,1.4-2.6,1.8h-1
		L575.566,194.2L575.566,194.2z M578.666,187.9c-1-1.3-1.7-2.8-1.9-4.5c0.3-0.2,0.6-0.3,0.9-0.2l0.5,0.3c0.2,1.5,0.8,2.9,1.7,4.2
		l-0.2,0.2H578.666z M583.066,187.4l-0.6-0.5c-0.4-1.9-0.8-3.7-1.4-5.4l0.9-0.1l0.5,0.4c0.5,1.3,0.9,2.7,1.3,4.1v1.3L583.066,187.4z
		"/>
	<path class="st4" d="M615.566,188.9l-0.6-0.9l0.1-0.5c3.6-0.4,7.1-0.7,10.7-1.2l0.6,0.6v0.7l-0.4,0.4l-1.1-0.2
		C621.766,188.2,618.666,188.6,615.566,188.9z"/>
	<path class="st4" d="M665.466,189.3l-0.9-0.8l-0.1-0.3v-2.9l0.1-0.5l-0.1-0.4l0.3-1.9V181l0.7-0.3l0.7,0.4l0.2,0.8l-0.3,1v1.1
		l-0.2,1.1v1.6l-0.1,0.1v1.3l0.1,0.5l-0.2,0.6L665.466,189.3z M665.166,194.3l-0.7-0.6V193l0.3-0.8l1.1-0.3c0.3,0.4,0.4,0.9,0.4,1.4
		l-0.5,0.9L665.166,194.3z"/>
	<path class="st5" d="M855.666,99.1c-2-15.1-8.2-29.6-20.2-39.5c-12.4-10.3-27.8-15-43.6-16.8c-10.2-1.2-20.5-1.2-30.7-0.9
		c-1.8,0-3.6,0.2-5.3,0.4c8.2-17.3,12.4-36.9,6.7-55.6c-6.2-20.3-23-35.6-42.5-43c-42.5-16.1-94.3,3.7-123.4,36.3
		c-15.1,17-26,39-25.9,62.1c0,3.6,6,4.7,6.5,0.9c2.5-18.3,8.9-35,20.1-49.7c11.2-14.8,26.3-26.6,43-34.6
		c35.7-17.2,89.8-17.5,110.3,22.7c11.3,22.1,3.3,48.4-8.9,68.2c-3.1,5,4.3,8.9,7.7,4.5c4.1-5.4,17.1-3.3,22.8-3.3
		c9.5,0.1,19.1,0.6,28.4,2.6c16.3,3.5,32,11.9,39.9,27.1c7.4,14.3,8.4,33.1,5.2,48.7c-1.7,8.3-5.3,15.9-12.1,21.1
		c-6.7,5.1-14.8,7.7-22.6,10.4c-5.3,1.9-3.2,10.2,2.3,8.5c0.6-0.2,1.3-0.4,1.9-0.6c8.1-1.9,20.4,2.8,19.2,12.7
		c-0.7,6.2-13,5.9-17.4,6.4c-6.7,0.8-13.4,1.4-20.1,1.9c-27.2,1.8-54.6,0.7-81.6-2.8c-4.3-0.6-5.3,6.9-1,7.6
		c35.3,5.5,71.2,5.7,106.6,1.1c6.2-0.8,13.9-1,18.5-5.9c4.4-4.6,3.7-11.8,1-17.1c-2.2-4.3-5.7-7.6-9.8-9.9c7.9-4,14.9-9.5,19.2-17.7
		C857.166,131.2,857.666,113.9,855.666,99.1z"/>
	<path class="st6" d="M450.766-25.7c-5.2,1.2-10.3,4.5-14.7,7.9c-5.8-3.1-13.1-2.4-18.3,2.2c-4.8,4.2-8.3,13.5-4.5,19.3
		c2.1,3.1,6.1,1.6,6.6-1.8c0.5-3.6-0.1-7,3.6-9.1c3-1.8,7.1-1,10.1,0.5c2.5,1.2,5.7,0.7,7.2-1.9c2.3-4.1,5.1-6.8,9.7-8.3
		c3.8-1.2,6,0.3,9.6,1.2c2,0.5,4.4-1,4.3-3.2C463.966-25.8,456.266-26.9,450.766-25.7z"/>
	<path class="st6" d="M493.766,0.2c-8.9-2.1-18.5,2.9-21.6,11.2c-1-0.6-2.1-1.1-3.5-1.4c-3.5-0.8-7.2-0.3-9.9,2.1
		c-4,3.6-9.2,8.8-7.8,14.8c0.6,2.3,3.4,2.2,4.6,0.6c2.1-2.8,2.6-6.6,6.6-7.2c2.7-0.5,8.1-1.8,10.7-0.2c1.7,1.1,4.7,0.1,5.1-2.1
		c1-6.7,6.8-12.1,14-10.3C496.466,8.8,498.466,1.3,493.766,0.2z"/>
</g>
</svg>
